<?xml version="1.0" encoding="UTF-8"?>
<!DOCTYPE svg PUBLIC "-//W3C//DTD SVG 1.1//EN" "http://www.w3.org/Graphics/SVG/1.1/DTD/svg11.dtd">
<!-- Creator: CorelDRAW X7 -->
<svg xmlns="http://www.w3.org/2000/svg" xml:space="preserve" width="100%" height="100%" version="1.1" shape-rendering="geometricPrecision" text-rendering="geometricPrecision" image-rendering="optimizeQuality" fill-rule="evenodd" clip-rule="evenodd"
viewBox="0 0 1158 1264"
 xmlns:xlink="http://www.w3.org/1999/xlink">
 <defs>
   <linearGradient id="id0" gradientUnits="userSpaceOnUse" x1="806.73" y1="443.1" x2="38.07" y2="673.64">
    <stop offset="0" stop-opacity="1" stop-color="#20316E"/>
    <stop offset="1" stop-opacity="1" stop-color="#3E53A0"/>
   </linearGradient>
   <linearGradient id="id1" gradientUnits="userSpaceOnUse" x1="345.7" y1="715.87" x2="1132.08" y2="663.13">
    <stop offset="0" stop-opacity="1" stop-color="#325FB8"/>
    <stop offset="1" stop-opacity="1" stop-color="#6A8BCF"/>
   </linearGradient>
   <linearGradient id="id2" gradientUnits="userSpaceOnUse" x1="683.87" y1="87.13" x2="683.87" y2="784.13">
    <stop offset="0" stop-opacity="1" stop-color="#74B1E4"/>
    <stop offset="1" stop-opacity="1" stop-color="#2870AB"/>
   </linearGradient>
   <linearGradient id="id3" gradientUnits="userSpaceOnUse" x1="222.64" y1="484.82" x2="702.86" y2="1143">
    <stop offset="0" stop-opacity="1" stop-color="#1E3166"/>
    <stop offset="1" stop-opacity="1" stop-color="#4A64AB"/>
   </linearGradient>
 </defs>
 <g id="Layer_x0020_1">
  <metadata id="CorelCorpID_0Corel-Layer"/>
  <path fill="url(#id0)" d="M79 988c39,-168 96,-392 149,-551 11,-36 45,-66 88,-58 141,27 279,69 415,114 37,12 50,45 56,76 19,-64 38,-129 56,-194 9,-49 -19,-83 -62,-111 -161,-46 -321,-95 -484,-135 -40,23 -157,91 -188,109 -115,67 -108,174 -108,297 0,79 0,143 -1,203 -2,84 17,158 79,250z"/>
  <path fill="url(#id1)" d="M1158 387c0,-74 -57,-100 -100,-147 -47,168 -55,411 -115,570 -14,35 -65,63 -108,53 -141,-34 -277,-70 -412,-121 -37,-14 -38,-39 -43,-70 -22,64 -34,132 -56,196 -11,49 2,85 44,115 161,54 331,109 494,156 164,-94 297,-165 296,-361 -1,-61 0,-369 0,-391z"/>
  <path fill="url(#id2)" d="M474 27c-63,38 -130,73 -193,111 162,43 330,85 491,133 35,11 66,43 59,86 -23,142 -56,266 -97,403 -11,38 -45,52 -75,58 64,18 130,37 196,51 48,10 93,-17 109,-65 53,-160 85,-308 120,-472 10,-46 -18,-90 -48,-107 -115,-66 -229,-132 -344,-198 -64,-37 -142,-35 -218,0z"/>
  <path fill="url(#id3)" d="M673 1248c64,-35 125,-72 190,-109 -160,-51 -325,-101 -483,-157 -35,-12 -64,-46 -56,-88 29,-141 73,-278 120,-414 12,-37 46,-49 77,-55 -64,-19 -129,-39 -194,-59 -48,-9 -83,18 -112,61 -48,160 -107,323 -149,485 -12,46 15,90 44,107 116,66 235,132 349,201 63,39 136,60 214,28z"/>
 </g>
</svg>
